<svg width="393" xmlns="http://www.w3.org/2000/svg" height="851" id="screenshot-0c675889-8bed-802c-8005-66959699714e" fill="none" version="1.1"><style>@font-face{font-family:&apos;sourcesanspro&apos;;font-style:normal;font-weight:400;font-display:block;src:url(https://design.penpot.app/fonts/sourcesanspro-regular.woff) format(&apos;woff&apos;)}@font-face{font-family:&apos;Ubuntu Mono&apos;;font-style:normal;font-weight:400;font-display:block;src:url(https://design.penpot.app/internal/gfonts/font/ubuntumono/v17/KFOjCneDtsqEr0keqCMhbCc3CsTKlA.woff2) format(&apos;woff2&apos;);unicode-range:U+0460-052F, U+1C80-1C8A, U+20B4, U+2DE0-2DFF, U+A640-A69F, U+FE2E-FE2F}@font-face{font-family:&apos;Ubuntu Mono&apos;;font-style:normal;font-weight:400;font-display:block;src:url(https://design.penpot.app/internal/gfonts/font/ubuntumono/v17/KFOjCneDtsqEr0keqCMhbCc-CsTKlA.woff2) format(&apos;woff2&apos;);unicode-range:U+0301, U+0400-045F, U+0490-0491, U+04B0-04B1, U+2116}@font-face{font-family:&apos;Ubuntu Mono&apos;;font-style:normal;font-weight:400;font-display:block;src:url(https://design.penpot.app/internal/gfonts/font/ubuntumono/v17/KFOjCneDtsqEr0keqCMhbCc2CsTKlA.woff2) format(&apos;woff2&apos;);unicode-range:U+1F00-1FFF}@font-face{font-family:&apos;Ubuntu Mono&apos;;font-style:normal;font-weight:400;font-display:block;src:url(https://design.penpot.app/internal/gfonts/font/ubuntumono/v17/KFOjCneDtsqEr0keqCMhbCc5CsTKlA.woff2) format(&apos;woff2&apos;);unicode-range:U+0370-0377, U+037A-037F, U+0384-038A, U+038C, U+038E-03A1, U+03A3-03FF}@font-face{font-family:&apos;Ubuntu Mono&apos;;font-style:normal;font-weight:400;font-display:block;src:url(https://design.penpot.app/internal/gfonts/font/ubuntumono/v17/KFOjCneDtsqEr0keqCMhbCc0CsTKlA.woff2) format(&apos;woff2&apos;);unicode-range:U+0100-02BA, U+02BD-02C5, U+02C7-02CC, U+02CE-02D7, U+02DD-02FF, U+0304, U+0308, U+0329, U+1D00-1DBF, U+1E00-1E9F, U+1EF2-1EFF, U+2020, U+20A0-20AB, U+20AD-20C0, U+2113, U+2C60-2C7F, U+A720-A7FF}@font-face{font-family:&apos;Ubuntu Mono&apos;;font-style:normal;font-weight:400;font-display:block;src:url(https://design.penpot.app/internal/gfonts/font/ubuntumono/v17/KFOjCneDtsqEr0keqCMhbCc6CsQ.woff2) format(&apos;woff2&apos;);unicode-range:U+0000-00FF, U+0131, U+0152-0153, U+02BB-02BC, U+02C6, U+02DA, U+02DC, U+0304, U+0308, U+0329, U+2000-206F, U+20AC, U+2122, U+2191, U+2193, U+2212, U+2215, U+FEFF, U+FFFD}@font-face{font-family:&apos;Rubik&apos;;font-style:normal;font-weight:400;font-display:block;src:url(https://design.penpot.app/internal/gfonts/font/rubik/v28/iJWZBXyIfDnIV5PNhY1KTN7Z-Yh-B4iFUkU1Z4Y.woff2) format(&apos;woff2&apos;);unicode-range:U+0600-06FF, U+0750-077F, U+0870-088E, U+0890-0891, U+0897-08E1, U+08E3-08FF, U+200C-200E, U+2010-2011, U+204F, U+2E41, U+FB50-FDFF, U+FE70-FE74, U+FE76-FEFC, U+102E0-102FB, U+10E60-10E7E, U+10EC2-10EC4, U+10EFC-10EFF, U+1EE00-1EE03, U+1EE05-1EE1F, U+1EE21-1EE22, U+1EE24, U+1EE27, U+1EE29-1EE32, U+1EE34-1EE37, U+1EE39, U+1EE3B, U+1EE42, U+1EE47, U+1EE49, U+1EE4B, U+1EE4D-1EE4F, U+1EE51-1EE52, U+1EE54, U+1EE57, U+1EE59, U+1EE5B, U+1EE5D, U+1EE5F, U+1EE61-1EE62, U+1EE64, U+1EE67-1EE6A, U+1EE6C-1EE72, U+1EE74-1EE77, U+1EE79-1EE7C, U+1EE7E, U+1EE80-1EE89, U+1EE8B-1EE9B, U+1EEA1-1EEA3, U+1EEA5-1EEA9, U+1EEAB-1EEBB, U+1EEF0-1EEF1}@font-face{font-family:&apos;Rubik&apos;;font-style:normal;font-weight:400;font-display:block;src:url(https://design.penpot.app/internal/gfonts/font/rubik/v28/iJWZBXyIfDnIV5PNhY1KTN7Z-Yh-B4iFWkU1Z4Y.woff2) format(&apos;woff2&apos;);unicode-range:U+0460-052F, U+1C80-1C8A, U+20B4, U+2DE0-2DFF, U+A640-A69F, U+FE2E-FE2F}@font-face{font-family:&apos;Rubik&apos;;font-style:normal;font-weight:400;font-display:block;src:url(https://design.penpot.app/internal/gfonts/font/rubik/v28/iJWZBXyIfDnIV5PNhY1KTN7Z-Yh-B4iFU0U1Z4Y.woff2) format(&apos;woff2&apos;);unicode-range:U+0301, U+0400-045F, U+0490-0491, U+04B0-04B1, U+2116}@font-face{font-family:&apos;Rubik&apos;;font-style:normal;font-weight:400;font-display:block;src:url(https://design.penpot.app/internal/gfonts/font/rubik/v28/iJWZBXyIfDnIV5PNhY1KTN7Z-Yh-B4iFVUU1Z4Y.woff2) format(&apos;woff2&apos;);unicode-range:U+0307-0308, U+0590-05FF, U+200C-2010, U+20AA, U+25CC, U+FB1D-FB4F}@font-face{font-family:&apos;Rubik&apos;;font-style:normal;font-weight:400;font-display:block;src:url(https://design.penpot.app/internal/gfonts/font/rubik/v28/iJWZBXyIfDnIV5PNhY1KTN7Z-Yh-B4iFWUU1Z4Y.woff2) format(&apos;woff2&apos;);unicode-range:U+0100-02BA, U+02BD-02C5, U+02C7-02CC, U+02CE-02D7, U+02DD-02FF, U+0304, U+0308, U+0329, U+1D00-1DBF, U+1E00-1E9F, U+1EF2-1EFF, U+2020, U+20A0-20AB, U+20AD-20C0, U+2113, U+2C60-2C7F, U+A720-A7FF}@font-face{font-family:&apos;Rubik&apos;;font-style:normal;font-weight:400;font-display:block;src:url(https://design.penpot.app/internal/gfonts/font/rubik/v28/iJWZBXyIfDnIV5PNhY1KTN7Z-Yh-B4iFV0U1.woff2) format(&apos;woff2&apos;);unicode-range:U+0000-00FF, U+0131, U+0152-0153, U+02BB-02BC, U+02C6, U+02DA, U+02DC, U+0304, U+0308, U+0329, U+2000-206F, U+20AC, U+2122, U+2191, U+2193, U+2212, U+2215, U+FEFF, U+FFFD}@font-face{font-family:&apos;Roboto&apos;;font-style:normal;font-weight:500;font-display:block;src:url(https://design.penpot.app/internal/gfonts/font/roboto/v32/KFOlCnqEu92Fr1MmEU9fCRc4EsA.woff2) format(&apos;woff2&apos;);unicode-range:U+0460-052F, U+1C80-1C8A, U+20B4, U+2DE0-2DFF, U+A640-A69F, U+FE2E-FE2F}@font-face{font-family:&apos;Roboto&apos;;font-style:normal;font-weight:500;font-display:block;src:url(https://design.penpot.app/internal/gfonts/font/roboto/v32/KFOlCnqEu92Fr1MmEU9fABc4EsA.woff2) format(&apos;woff2&apos;);unicode-range:U+0301, U+0400-045F, U+0490-0491, U+04B0-04B1, U+2116}@font-face{font-family:&apos;Roboto&apos;;font-style:normal;font-weight:500;font-display:block;src:url(https://design.penpot.app/internal/gfonts/font/roboto/v32/KFOlCnqEu92Fr1MmEU9fCBc4EsA.woff2) format(&apos;woff2&apos;);unicode-range:U+1F00-1FFF}@font-face{font-family:&apos;Roboto&apos;;font-style:normal;font-weight:500;font-display:block;src:url(https://design.penpot.app/internal/gfonts/font/roboto/v32/KFOlCnqEu92Fr1MmEU9fBxc4EsA.woff2) format(&apos;woff2&apos;);unicode-range:U+0370-0377, U+037A-037F, U+0384-038A, U+038C, U+038E-03A1, U+03A3-03FF}@font-face{font-family:&apos;Roboto&apos;;font-style:normal;font-weight:500;font-display:block;src:url(https://design.penpot.app/internal/gfonts/font/roboto/v32/KFOlCnqEu92Fr1MmEU9fCxc4EsA.woff2) format(&apos;woff2&apos;);unicode-range:U+0102-0103, U+0110-0111, U+0128-0129, U+0168-0169, U+01A0-01A1, U+01AF-01B0, U+0300-0301, U+0303-0304, U+0308-0309, U+0323, U+0329, U+1EA0-1EF9, U+20AB}@font-face{font-family:&apos;Roboto&apos;;font-style:normal;font-weight:500;font-display:block;src:url(https://design.penpot.app/internal/gfonts/font/roboto/v32/KFOlCnqEu92Fr1MmEU9fChc4EsA.woff2) format(&apos;woff2&apos;);unicode-range:U+0100-02BA, U+02BD-02C5, U+02C7-02CC, U+02CE-02D7, U+02DD-02FF, U+0304, U+0308, U+0329, U+1D00-1DBF, U+1E00-1E9F, U+1EF2-1EFF, U+2020, U+20A0-20AB, U+20AD-20C0, U+2113, U+2C60-2C7F, U+A720-A7FF}@font-face{font-family:&apos;Roboto&apos;;font-style:normal;font-weight:500;font-display:block;src:url(https://design.penpot.app/internal/gfonts/font/roboto/v32/KFOlCnqEu92Fr1MmEU9fBBc4.woff2) format(&apos;woff2&apos;);unicode-range:U+0000-00FF, U+0131, U+0152-0153, U+02BB-02BC, U+02C6, U+02DA, U+02DC, U+0304, U+0308, U+0329, U+2000-206F, U+20AC, U+2122, U+2191, U+2193, U+2212, U+2215, U+FEFF, U+FFFD}</style><g id="shape-0c675889-8bed-802c-8005-66959699714e"><defs><clipPath id="frame-clip-0c675889-8bed-802c-8005-66959699714e-render-132" class="frame-clip frame-clip-def"><rect rx="0" ry="0" width="393" height="851"/></clipPath></defs><g clip-path="url(#frame-clip-0c675889-8bed-802c-8005-66959699714e-render-132)"><g class="fills" id="fills-0c675889-8bed-802c-8005-66959699714e"><rect width="393" height="851" class="frame-background" style="fill: rgb(255, 255, 255); fill-opacity: 1;" ry="0" rx="0"/></g><g class="frame-children"><g id="shape-9a1b72d7-2a39-8013-8005-66ae6ab16bd0"><rect rx="0" ry="0" y="57" width="393" height="472" style="fill: rgb(38, 38, 38); fill-opacity: 1;" class="fills" id="fills-9a1b72d7-2a39-8013-8005-66ae6ab16bd0"/></g><g id="shape-9a1b72d7-2a39-8013-8005-66aea5a7962d"><defs><clipPath id="frame-clip-9a1b72d7-2a39-8013-8005-66aea5a7962d-render-134" class="frame-clip frame-clip-def"><rect rx="0" ry="0" x="72" y="138" width="249" height="312"/></clipPath></defs><g clip-path="url(#frame-clip-9a1b72d7-2a39-8013-8005-66aea5a7962d-render-134)"><g class="fills" id="fills-9a1b72d7-2a39-8013-8005-66aea5a7962d"><rect rx="0" ry="0" x="72" y="138" width="249" height="312" class="frame-background"/></g><g class="frame-children"><g id="shape-9a1b72d7-2a39-8013-8005-66aea5a7962e"><defs><filter id="filter-shadow-render-135" x="-.542" y="-.433" width="2.133" height="1.962" filterUnits="objectBoundingBox" color-interpolation-filters="sRGB"><feFlood flood-opacity="0" result="BackgroundImageFix"/><feColorMatrix in="SourceAlpha" values="0 0 0 0 0 0 0 0 0 0 0 0 0 0 0 0 0 0 127 0"/><feOffset dx="4" dy="10"/><feGaussianBlur stdDeviation="20"/><feColorMatrix values="0 0 0 0 0 0 0 0 0 0 0 0 0 0 0 0 0 0 0.4 0"/><feBlend in2="BackgroundImageFix" result="filter_9a1b72d7-2a39-8013-8005-66a6f598751d"/><feBlend in="SourceGraphic" in2="filter_9a1b72d7-2a39-8013-8005-66a6f598751d" result="shape"/></filter></defs><g filter="url(#filter-shadow-render-135)"><g class="fills" id="fills-9a1b72d7-2a39-8013-8005-66aea5a7962e"><path d="M82 138h229a10 10 0 0 1 10 10v272a30 30 0 0 1-30 30H102a30 30 0 0 1-30-30V148a10 10 0 0 1 10-10z" class="frame-background" style="fill: rgb(81, 81, 81); fill-opacity: 1;"/></g><g class="frame-children"><g id="shape-9a1b72d7-2a39-8013-8005-66aea5a7962f"><g class="fills" id="fills-9a1b72d7-2a39-8013-8005-66aea5a7962f"><rect rx="0" ry="0" x="92" y="188" width="200" height="115" class="frame-background"/></g><g class="frame-children"><g class="text-container" id="shape-9a1b72d7-2a39-8013-8005-66aea5a79634"><defs><pattern patternUnits="userSpaceOnUse" x="105.5" y="188" width="172.938" height="34.509" id="fill-0-render-137-0"><rect width="172.938" height="34.509" style="fill: rgb(255, 255, 255); fill-opacity: 0.7;"/></pattern><pattern patternUnits="userSpaceOnUse" x="105.5" y="188" width="172.938" height="34.509" id="fill-1-render-137-0"><rect width="172.938" height="34.509" style="fill: rgb(255, 255, 255); fill-opacity: 0.7;"/></pattern></defs><text x="105.5" y="205.143" dominant-baseline="ideographic" textLength="172.938" lengthAdjust="spacingAndGlyphs" style="text-transform: none; font-family: sourcesanspro; letter-spacing: normal; font-style: normal; font-weight: 400; white-space: pre; font-size: 14px; text-decoration: none solid rgba(255, 255, 255, 0.7); direction: ltr; fill: rgb(255, 255, 255); fill-opacity: 0.7;" class="fills" id="fills-9a1b72d7-2a39-8013-8005-66aea5a79634">example@email.com account</text><defs><pattern patternUnits="userSpaceOnUse" x="105.5" y="188" width="172.938" height="34.509" id="fill-0-render-137-1"><rect width="172.938" height="34.509" style="fill: rgb(255, 255, 255); fill-opacity: 0.7;"/></pattern><pattern patternUnits="userSpaceOnUse" x="105.5" y="188" width="172.938" height="34.509" id="fill-1-render-137-1"><rect width="172.938" height="34.509" style="fill: rgb(255, 255, 255); fill-opacity: 0.7;"/></pattern></defs><text x="142.571" y="221.938" dominant-baseline="ideographic" textLength="98.786" lengthAdjust="spacingAndGlyphs" style="text-transform: none; font-family: sourcesanspro; letter-spacing: normal; font-style: normal; font-weight: 400; white-space: pre; font-size: 14px; text-decoration: none solid rgba(255, 255, 255, 0.7); direction: ltr; fill: rgb(255, 255, 255); fill-opacity: 0.7;" class="fills">doesn&apos;t exist yet!</text></g><g id="shape-9a1b72d7-2a39-8013-8005-66aea5a79633"><g class="fills" id="fills-9a1b72d7-2a39-8013-8005-66aea5a79633"><rect rx="0" ry="0" x="92" y="237" width="200" height="53" class="frame-background"/></g><g class="frame-children"><g class="text-container" id="shape-9a1b72d7-2a39-8013-8005-66aea5a79643"><defs><pattern patternUnits="userSpaceOnUse" x="92" y="237" width="126.277" height="18.286" id="fill-0-render-139-0"><rect width="126.277" height="18.286" style="fill: rgb(255, 255, 255); fill-opacity: 1;"/></pattern></defs><text x="92" y="254.714" dominant-baseline="ideographic" textLength="126.277" lengthAdjust="spacingAndGlyphs" style="text-transform: none; font-family: Rubik; letter-spacing: normal; font-style: normal; font-weight: 400; white-space: pre; font-size: 15px; text-decoration: none solid rgb(255, 255, 255); direction: ltr; fill: rgb(255, 255, 255); fill-opacity: 1;" class="fills" id="fills-9a1b72d7-2a39-8013-8005-66aea5a79643">Confirm Password</text></g><g id="shape-9a1b72d7-2a39-8013-8005-66aea5a79642"><g class="fills" id="fills-9a1b72d7-2a39-8013-8005-66aea5a79642"><rect rx="5" ry="5" x="92" y="260" width="200" height="30" class="frame-background"/></g><g class="frame-children"><g id="shape-9a1b72d7-2a39-8013-8005-66aea5a79645"><defs><clipPath id="frame-clip-9a1b72d7-2a39-8013-8005-66aea5a79645-render-145" class="frame-clip frame-clip-def"><rect rx="0" ry="0" x="97" y="265" width="190" height="20"/></clipPath></defs><g clip-path="url(#frame-clip-9a1b72d7-2a39-8013-8005-66aea5a79645-render-145)"><g class="fills" id="fills-9a1b72d7-2a39-8013-8005-66aea5a79645"><rect width="190" height="20" class="frame-background" x="97" style="fill: rgb(255, 255, 255); fill-opacity: 1;" ry="0" rx="0" y="265"/></g><g class="frame-children"><g class="text-container" id="shape-9a1b72d7-2a39-8013-8005-66aea5a7964b"><defs><pattern patternUnits="userSpaceOnUse" x="96" y="265" width="154.027" height="18.286" id="fill-0-render-147-0"><rect width="154.027" height="18.286" style="fill: rgb(0, 0, 0); fill-opacity: 1;"/></pattern></defs><text x="96" y="282.714" dominant-baseline="ideographic" textLength="154.027" lengthAdjust="spacingAndGlyphs" style="text-transform: none; font-family: Rubik; letter-spacing: normal; font-style: normal; font-weight: 400; white-space: pre; font-size: 15px; text-decoration: none solid rgb(0, 0, 0); direction: ltr; fill: rgb(0, 0, 0); fill-opacity: 1;" class="fills" id="fills-9a1b72d7-2a39-8013-8005-66aea5a7964b">●●●●●●●●●●●●●●●●●</text></g></g></g></g></g><g id="strokes-9a1b72d7-2a39-8013-8005-66aea5a79642" class="strokes"><g class="inner-stroke-shape"><defs><clipPath id="inner-stroke-render-140-9a1b72d7-2a39-8013-8005-66aea5a79642-0"><use href="#stroke-shape-render-140-9a1b72d7-2a39-8013-8005-66aea5a79642-0"/></clipPath><rect width="200" height="30" class="frame-background" x="92" id="stroke-shape-render-140-9a1b72d7-2a39-8013-8005-66aea5a79642-0" style="fill: none; stroke-width: 2; stroke: rgb(255, 255, 255); stroke-opacity: 1;" ry="5" rx="5" y="260"/></defs><use href="#stroke-shape-render-140-9a1b72d7-2a39-8013-8005-66aea5a79642-0" clip-path="url('#inner-stroke-render-140-9a1b72d7-2a39-8013-8005-66aea5a79642-0')"/></g></g></g></g></g><g id="shape-9a1b72d7-2a39-8013-8005-66aea5a79632"><g class="fills" id="fills-9a1b72d7-2a39-8013-8005-66aea5a79632"><rect rx="0" ry="0" x="92" y="305" width="200" height="53" class="frame-background"/></g><g class="frame-children"><g class="text-container" id="shape-9a1b72d7-2a39-8013-8005-66aea5a79636"><defs><pattern patternUnits="userSpaceOnUse" x="92" y="305" width="90.5" height="18.286" id="fill-0-render-153-0"><rect width="90.5" height="18.286" style="fill: rgb(255, 255, 255); fill-opacity: 1;"/></pattern></defs><text x="92" y="322.714" dominant-baseline="ideographic" textLength="90.5" lengthAdjust="spacingAndGlyphs" style="text-transform: none; font-family: Rubik; letter-spacing: normal; font-style: normal; font-weight: 400; white-space: pre; font-size: 15px; text-decoration: none solid rgb(255, 255, 255); direction: ltr; fill: rgb(255, 255, 255); fill-opacity: 1;" class="fills" id="fills-9a1b72d7-2a39-8013-8005-66aea5a79636">Other fields...</text></g><g id="shape-9a1b72d7-2a39-8013-8005-66aea5a79635"><g class="fills" id="fills-9a1b72d7-2a39-8013-8005-66aea5a79635"><rect rx="5" ry="5" x="92" y="328" width="200" height="30" class="frame-background"/></g><g class="frame-children"><g id="shape-9a1b72d7-2a39-8013-8005-66aea5a79638"><defs><clipPath id="frame-clip-9a1b72d7-2a39-8013-8005-66aea5a79638-render-159" class="frame-clip frame-clip-def"><rect rx="0" ry="0" x="97" y="333" width="190" height="20"/></clipPath></defs><g clip-path="url(#frame-clip-9a1b72d7-2a39-8013-8005-66aea5a79638-render-159)"><g class="fills" id="fills-9a1b72d7-2a39-8013-8005-66aea5a79638"><rect width="190" height="20" class="frame-background" x="97" style="fill: rgb(255, 255, 255); fill-opacity: 1;" ry="0" rx="0" y="333"/></g><g class="frame-children"><g class="text-container" id="shape-9a1b72d7-2a39-8013-8005-66aea5a7963d"><defs><pattern patternUnits="userSpaceOnUse" x="96" y="333" width="113.723" height="18.286" id="fill-0-render-160-0"><rect width="113.723" height="18.286" style="fill: rgb(0, 0, 0); fill-opacity: 1;"/></pattern></defs><text x="96" y="350.714" dominant-baseline="ideographic" textLength="113.723" lengthAdjust="spacingAndGlyphs" style="text-transform: none; font-family: Rubik; letter-spacing: normal; font-style: normal; font-weight: 400; white-space: pre; font-size: 15px; text-decoration: none solid rgb(0, 0, 0); direction: ltr; fill: rgb(0, 0, 0); fill-opacity: 1;" class="fills" id="fills-9a1b72d7-2a39-8013-8005-66aea5a7963d">Placeholder text</text></g></g></g></g></g><g id="strokes-9a1b72d7-2a39-8013-8005-66aea5a79635" class="strokes"><g class="inner-stroke-shape"><defs><clipPath id="inner-stroke-render-154-9a1b72d7-2a39-8013-8005-66aea5a79635-0"><use href="#stroke-shape-render-154-9a1b72d7-2a39-8013-8005-66aea5a79635-0"/></clipPath><rect width="200" height="30" class="frame-background" x="92" id="stroke-shape-render-154-9a1b72d7-2a39-8013-8005-66aea5a79635-0" style="fill: none; stroke-width: 2; stroke: rgb(255, 255, 255); stroke-opacity: 1;" ry="5" rx="5" y="328"/></defs><use href="#stroke-shape-render-154-9a1b72d7-2a39-8013-8005-66aea5a79635-0" clip-path="url('#inner-stroke-render-154-9a1b72d7-2a39-8013-8005-66aea5a79635-0')"/></g></g></g></g></g></g></g><g class="text-container" id="shape-9a1b72d7-2a39-8013-8005-66aea5a79630"><defs><pattern patternUnits="userSpaceOnUse" x="92" y="149" width="72" height="24" id="fill-0-render-166-0"><rect width="72" height="24" style="fill: rgb(255, 255, 255); fill-opacity: 1;"/></pattern></defs><text x="160.5" y="173" dominant-baseline="ideographic" textLength="72" lengthAdjust="spacingAndGlyphs" style="text-transform: none; font-family: &quot;Ubuntu Mono&quot;; letter-spacing: normal; font-style: normal; font-weight: 400; white-space: pre; font-size: 24px; text-decoration: none solid rgb(255, 255, 255); direction: ltr; fill: rgb(255, 255, 255); fill-opacity: 1;" class="fills" id="fills-9a1b72d7-2a39-8013-8005-66aea5a79630">Signup</text></g><g id="shape-9a1b72d7-2a39-8013-8005-66aea5a79631"><g class="fills" id="fills-9a1b72d7-2a39-8013-8005-66aea5a79631"><rect width="209" height="34" class="frame-background" x="92" style="fill: rgb(255, 255, 255); fill-opacity: 1;" ry="17" rx="17" y="394"/></g><g class="frame-children"><g class="text-container" id="shape-9a1b72d7-2a39-8013-8005-66aea5a79650"><defs><pattern patternUnits="userSpaceOnUse" x="112" y="401" width="115.946" height="18.857" id="fill-0-render-168-0"><rect width="115.946" height="18.857" style="fill: rgb(0, 0, 0); fill-opacity: 1;"/></pattern></defs><text x="129.027" y="420.143" dominant-baseline="ideographic" textLength="115.946" lengthAdjust="spacingAndGlyphs" style="text-transform: none; font-family: Rubik; letter-spacing: normal; font-style: normal; font-weight: 400; white-space: pre; font-size: 16px; text-decoration: none solid rgb(0, 0, 0); direction: ltr; fill: rgb(0, 0, 0); fill-opacity: 1;" class="fills" id="fills-9a1b72d7-2a39-8013-8005-66aea5a79650">Create Account</text></g><g id="shape-9a1b72d7-2a39-8013-8005-66aea5a7964f"><g class="fills" id="fills-9a1b72d7-2a39-8013-8005-66aea5a7964f"><rect rx="0" ry="0" x="267" y="399" width="24" height="24" class="frame-background"/></g><g class="frame-children"><g id="shape-9a1b72d7-2a39-8013-8005-66aea5a79651" style="fill: rgb(0, 0, 0);"><g id="shape-9a1b72d7-2a39-8013-8005-66aea5a79653"><path d="m282.038 405.343-1.411 1.418 3.27 3.255-13.605.013.002 2 13.568-.013-3.215 3.23 1.417 1.411 5.644-5.67-5.67-5.644Z" style="fill: rgb(0, 0, 0); fill-opacity: 1;" class="fills" id="fills-9a1b72d7-2a39-8013-8005-66aea5a79653"/></g></g></g></g></g></g></g></g></g></g></g></g><g id="shape-0c675889-8bed-802c-8005-66959699714f"><defs><clipPath id="frame-clip-0c675889-8bed-802c-8005-66959699714f-render-173" class="frame-clip frame-clip-def"><rect rx="0" ry="0" y="529" width="393" height="322"/></clipPath></defs><g clip-path="url(#frame-clip-0c675889-8bed-802c-8005-66959699714f-render-173)"><g class="fills" id="fills-0c675889-8bed-802c-8005-66959699714f"><rect width="393" height="322" class="frame-background" style="fill: rgb(20, 18, 24); fill-opacity: 1;" ry="0" rx="0" y="529"/></g><g class="frame-children"><g id="shape-0c675889-8bed-802c-8005-669596997152"><rect rx="2" ry="2" x="142.5" y="853" width="108" height="4" style="fill: rgb(255, 255, 255);" class="fills" id="fills-0c675889-8bed-802c-8005-669596997152"/></g><g id="shape-0c675889-8bed-802c-8005-669596997153"><path d="M361.857 836h-2.286v2.222h2.286V836ZM355 836h2.286v2.222H355V836Zm12.571 8.889h-9.142V846h9.142v-1.111ZM364.143 836h2.286v2.222h-2.286V836Zm-2.286 4.444h-2.286v2.223h2.286v-2.223Zm-6.857 0h2.286v2.223H355v-2.223Zm11.429 0h-2.286v2.223h2.286v-2.223Zm2.285-4.444H371v2.222h-2.286V836Zm2.286 4.444h-2.286v2.223H371v-2.223Z" fill-rule="evenodd" clip-rule="evenodd" style="fill: rgb(230, 224, 233);" class="fills" id="fills-0c675889-8bed-802c-8005-669596997153"/></g><g id="shape-0c675889-8bed-802c-8005-669596997154"><path d="m30 844.675-5.592-5.583 1.183-1.184L30 842.325l4.408-4.417 1.183 1.184L30 844.675Z" style="fill: rgb(230, 224, 233);" class="fills" id="fills-0c675889-8bed-802c-8005-669596997154"/></g><g id="shape-0c675889-8bed-802c-8005-669596997155"><defs><clipPath id="frame-clip-0c675889-8bed-802c-8005-669596997155-render-178" class="frame-clip frame-clip-def"><rect rx="0" ry="0" x="8" y="537" width="377" height="26"/></clipPath></defs><g clip-path="url(#frame-clip-0c675889-8bed-802c-8005-669596997155-render-178)"><g class="fills" id="fills-0c675889-8bed-802c-8005-669596997155"><rect rx="0" ry="0" x="8" y="537" width="377" height="26" class="frame-background"/></g><g class="frame-children"><g id="shape-0c675889-8bed-802c-8005-669596997157"><g id="shape-0c675889-8bed-802c-8005-66959699715f"><rect rx="13" ry="13" x="8" y="537" width="26" height="26" style="fill: rgb(79, 55, 139);" class="fills" id="fills-0c675889-8bed-802c-8005-66959699715f"/></g><g id="shape-0c675889-8bed-802c-8005-669596997160"><path d="m23.295 556 1.41-1.41-4.58-4.59 4.58-4.59-1.41-1.41-6 6 6 6Z" style="fill: rgb(234, 221, 255);" class="fills" id="fills-0c675889-8bed-802c-8005-669596997160"/></g></g><g id="shape-0c675889-8bed-802c-8005-669596997158"><path d="M79.292 544.857h2.572v10.286h-2.572v-10.286Zm-4.286 0h-5.142c-1.029 0-1.715.857-1.715 1.714v6.858c0 .857.686 1.714 1.715 1.714h5.142c1.029 0 1.715-.857 1.715-1.714V550h-2.572v2.571h-3.428v-5.142h6v-.858c0-.857-.686-1.714-1.715-1.714Zm17.143 2.572v-2.572h-7.714v10.286h2.571v-3.429h3.429v-2.571h-3.429v-1.714h5.143Z" style="fill: rgb(230, 224, 233);" class="fills" id="fills-0c675889-8bed-802c-8005-669596997158"/></g><g id="shape-0c675889-8bed-802c-8005-669596997159"><path d="M143.458 550.98c.04-.32.07-.64.07-.98 0-.34-.03-.66-.07-.98l2.11-1.65c.19-.15.24-.42.12-.64l-2-3.46a.503.503 0 0 0-.61-.22l-2.49 1c-.52-.4-1.08-.73-1.69-.98l-.38-2.65a.488.488 0 0 0-.49-.42h-4c-.25 0-.46.18-.49.42l-.38 2.65c-.61.25-1.17.59-1.69.98l-2.49-1c-.23-.09-.49 0-.61.22l-2 3.46c-.13.22-.07.49.12.64l2.11 1.65c-.04.32-.07.65-.07.98 0 .33.03.66.07.98l-2.11 1.65c-.19.15-.24.42-.12.64l2 3.46c.12.22.39.3.61.22l2.49-1c.52.4 1.08.73 1.69.98l.38 2.65c.03.24.24.42.49.42h4c.25 0 .46-.18.49-.42l.38-2.65c.61-.25 1.17-.59 1.69-.98l2.49 1c.23.09.49 0 .61-.22l2-3.46c.12-.22.07-.49-.12-.64l-2.11-1.65Zm-7.43 2.52c-1.93 0-3.5-1.57-3.5-3.5s1.57-3.5 3.5-3.5 3.5 1.57 3.5 3.5-1.57 3.5-3.5 3.5Z" style="fill: rgb(230, 224, 233);" class="fills" id="fills-0c675889-8bed-802c-8005-669596997159"/></g><g id="shape-0c675889-8bed-802c-8005-66959699715a"><path d="M197.002 543.35h-8.664l-.836-2.85h-5.7c-1.045 0-1.9.855-1.9 1.9v12.35c0 1.045.855 1.9 1.9 1.9h6.65l.95 2.85h7.6c1.045 0 1.9-.855 1.9-1.9v-12.35c0-1.045-.855-1.9-1.9-1.9Zm-12.189 9.111a3.89 3.89 0 0 1-3.885-3.886 3.885 3.885 0 0 1 3.885-3.886c.988 0 1.891.352 2.603 1.017l.067.057-1.169 1.121-.057-.048a2.063 2.063 0 0 0-1.444-.56c-1.244 0-2.261 1.035-2.261 2.299 0 1.263 1.017 2.299 2.261 2.299 1.302 0 1.862-.826 2.014-1.387h-2.099v-1.472h3.752l.01.066c.038.199.047.38.047.579 0 2.233-1.529 3.801-3.724 3.801Zm5.729-1.625a9.43 9.43 0 0 0 1.131 1.615l-.513.503-.618-2.118Zm.732-.722h-.941l-.294-.988h3.79s-.323 1.244-1.482 2.603a8.65 8.65 0 0 1-1.073-1.615Zm6.678 7.486c0 .522-.428.95-.95.95h-6.65l1.9-1.9-.77-2.631.874-.875 2.547 2.556.693-.694-2.574-2.545c.855-.979 1.519-2.138 1.823-3.335h1.207v-.988h-3.458v-.988h-.988v.988h-1.862l-1.121-3.838h8.379c.522 0 .95.427.95.95v12.35Z" style="fill: rgb(230, 224, 233);" class="fills" id="fills-0c675889-8bed-802c-8005-66959699715a"/></g><g id="shape-0c675889-8bed-802c-8005-66959699715b"><path d="M251.552 553.7v-9.712a3.233 3.233 0 0 0-3.238-3.238h-12.025a3.233 3.233 0 0 0-3.237 3.238v12.024a3.233 3.233 0 0 0 3.237 3.238h9.713l5.55-5.55Zm-15.263 3.7a1.389 1.389 0 0 1-1.387-1.388v-12.024c0-.766.622-1.388 1.387-1.388h12.025c.766 0 1.388.622 1.388 1.388v8.787h-1.388a3.233 3.233 0 0 0-3.237 3.237v1.388h-8.788Zm3.944-9.452a1.617 1.617 0 1 0-3.111.883c.067.236.185.446.336.622l2.809-.79a1.575 1.575 0 0 0-.034-.715Zm5.786-1.631a1.613 1.613 0 0 0-1.993-1.119 1.624 1.624 0 0 0-.782 2.624l2.808-.79c.042-.236.034-.48-.033-.715Zm.824 2.892-8.914 2.515a4.97 4.97 0 0 0 5.315 1.791c2.026-.572 3.397-2.329 3.599-4.306Z" style="fill: rgb(230, 224, 233);" class="fills" id="fills-0c675889-8bed-802c-8005-66959699715b"/></g><g id="shape-0c675889-8bed-802c-8005-66959699715c"><rect rx="0" ry="0" x="285.701" y="538" width="1" height="24" style="fill: rgb(73, 69, 79);" class="fills" id="fills-0c675889-8bed-802c-8005-66959699715c"/></g><g id="shape-0c675889-8bed-802c-8005-66959699715d"><path d="M322.851 548c-1.1 0-2 .9-2 2s.9 2 2 2 2-.9 2-2-.9-2-2-2Zm12 0c-1.1 0-2 .9-2 2s.9 2 2 2 2-.9 2-2-.9-2-2-2Zm-8 2c0-1.1.9-2 2-2s2 .9 2 2-.9 2-2 2-2-.9-2-2Z" fill-rule="evenodd" clip-rule="evenodd" style="fill: rgb(230, 224, 233);" class="fills" id="fills-0c675889-8bed-802c-8005-66959699715d"/></g><g id="shape-0c675889-8bed-802c-8005-66959699715e"><path d="M381 549.5c0 1.66-1.34 3-3 3s-3-1.34-3-3v-6c0-1.66 1.34-3 3-3s3 1.34 3 3v6Zm-3 5c2.76 0 5-2.24 5-5h2c0 3.53-2.61 6.43-6 6.92v3.08h-2v-3.08c-3.39-.49-6-3.39-6-6.92h2c0 2.76 2.24 5 5 5Z" fill-rule="evenodd" clip-rule="evenodd" style="fill: rgb(230, 224, 233);" class="fills" id="fills-0c675889-8bed-802c-8005-66959699715e"/></g></g></g></g><g id="shape-0c675889-8bed-802c-8005-669596997156"><g id="shape-0c675889-8bed-802c-8005-669596997161"><rect rx="6" ry="6" x="8" y="581" width="32.533" height="46" style="fill: rgb(29, 27, 32);" class="fills" id="fills-0c675889-8bed-802c-8005-669596997161"/></g><g id="shape-0c675889-8bed-802c-8005-669596997162"><rect rx="6" ry="6" x="46.274" y="581" width="32.533" height="46" style="fill: rgb(29, 27, 32);" class="fills" id="fills-0c675889-8bed-802c-8005-669596997162"/></g><g id="shape-0c675889-8bed-802c-8005-669596997163"><rect rx="6" ry="6" x="84.548" y="581" width="32.533" height="46" style="fill: rgb(29, 27, 32);" class="fills" id="fills-0c675889-8bed-802c-8005-669596997163"/></g><g id="shape-0c675889-8bed-802c-8005-669596997164"><rect rx="6" ry="6" x="122.822" y="581" width="32.533" height="46" style="fill: rgb(29, 27, 32);" class="fills" id="fills-0c675889-8bed-802c-8005-669596997164"/></g><g id="shape-0c675889-8bed-802c-8005-669596997165"><rect rx="6" ry="6" x="161.096" y="581" width="32.533" height="46" style="fill: rgb(29, 27, 32);" class="fills" id="fills-0c675889-8bed-802c-8005-669596997165"/></g><g id="shape-0c675889-8bed-802c-8005-669596997166"><rect rx="6" ry="6" x="199.37" y="581" width="32.533" height="46" style="fill: rgb(29, 27, 32);" class="fills" id="fills-0c675889-8bed-802c-8005-669596997166"/></g><g id="shape-0c675889-8bed-802c-8005-669596997167"><rect rx="6" ry="6" x="237.644" y="581" width="32.533" height="46" style="fill: rgb(29, 27, 32);" class="fills" id="fills-0c675889-8bed-802c-8005-669596997167"/></g><g id="shape-0c675889-8bed-802c-8005-669596997168"><rect rx="6" ry="6" x="275.918" y="581" width="32.533" height="46" style="fill: rgb(29, 27, 32);" class="fills" id="fills-0c675889-8bed-802c-8005-669596997168"/></g><g id="shape-0c675889-8bed-802c-8005-669596997169"><rect rx="6" ry="6" x="314.194" y="581" width="32.533" height="46" style="fill: rgb(29, 27, 32);" class="fills" id="fills-0c675889-8bed-802c-8005-669596997169"/></g><g id="shape-0c675889-8bed-802c-8005-66959699716a"><rect rx="6" ry="6" x="352.468" y="581" width="32.533" height="46" style="fill: rgb(29, 27, 32);" class="fills" id="fills-0c675889-8bed-802c-8005-66959699716a"/></g><g id="shape-0c675889-8bed-802c-8005-66959699716b"><rect rx="6" ry="6" x="27.992" y="639" width="32.369" height="46" style="fill: rgb(29, 27, 32);" class="fills" id="fills-0c675889-8bed-802c-8005-66959699716b"/></g><g id="shape-0c675889-8bed-802c-8005-66959699716c"><rect rx="6" ry="6" x="66.073" y="639" width="32.369" height="46" style="fill: rgb(29, 27, 32);" class="fills" id="fills-0c675889-8bed-802c-8005-66959699716c"/></g><g id="shape-0c675889-8bed-802c-8005-66959699716d"><rect rx="6" ry="6" x="104.154" y="639" width="32.369" height="46" style="fill: rgb(29, 27, 32);" class="fills" id="fills-0c675889-8bed-802c-8005-66959699716d"/></g><g id="shape-0c675889-8bed-802c-8005-66959699716e"><rect rx="6" ry="6" x="142.235" y="639" width="32.369" height="46" style="fill: rgb(29, 27, 32);" class="fills" id="fills-0c675889-8bed-802c-8005-66959699716e"/></g><g id="shape-0c675889-8bed-802c-8005-66959699716f"><rect rx="6" ry="6" x="180.316" y="639" width="32.369" height="46" style="fill: rgb(29, 27, 32);" class="fills" id="fills-0c675889-8bed-802c-8005-66959699716f"/></g><g id="shape-0c675889-8bed-802c-8005-669596997170"><rect rx="6" ry="6" x="218.396" y="639" width="32.369" height="46" style="fill: rgb(29, 27, 32);" class="fills" id="fills-0c675889-8bed-802c-8005-669596997170"/></g><g id="shape-0c675889-8bed-802c-8005-669596997171"><rect rx="6" ry="6" x="256.477" y="639" width="32.369" height="46" style="fill: rgb(29, 27, 32);" class="fills" id="fills-0c675889-8bed-802c-8005-669596997171"/></g><g id="shape-0c675889-8bed-802c-8005-669596997172"><rect rx="6" ry="6" x="294.558" y="639" width="32.369" height="46" style="fill: rgb(29, 27, 32);" class="fills" id="fills-0c675889-8bed-802c-8005-669596997172"/></g><g id="shape-0c675889-8bed-802c-8005-669596997173"><rect rx="6" ry="6" x="332.639" y="639" width="32.369" height="46" style="fill: rgb(29, 27, 32);" class="fills" id="fills-0c675889-8bed-802c-8005-669596997173"/></g><g id="shape-0c675889-8bed-802c-8005-669596997174"><rect rx="6" ry="6" x="8" y="697" width="52.361" height="46" style="fill: rgb(54, 52, 59);" class="fills" id="fills-0c675889-8bed-802c-8005-669596997174"/></g><g id="shape-0c675889-8bed-802c-8005-669596997175"><rect rx="6" ry="6" x="66.073" y="697" width="32.369" height="46" style="fill: rgb(29, 27, 32);" class="fills" id="fills-0c675889-8bed-802c-8005-669596997175"/></g><g id="shape-0c675889-8bed-802c-8005-669596997176"><rect rx="6" ry="6" x="104.154" y="697" width="32.369" height="46" style="fill: rgb(29, 27, 32);" class="fills" id="fills-0c675889-8bed-802c-8005-669596997176"/></g><g id="shape-0c675889-8bed-802c-8005-669596997177"><rect rx="6" ry="6" x="142.235" y="697" width="32.369" height="46" style="fill: rgb(29, 27, 32);" class="fills" id="fills-0c675889-8bed-802c-8005-669596997177"/></g><g id="shape-0c675889-8bed-802c-8005-669596997178"><rect rx="6" ry="6" x="180.316" y="697" width="32.369" height="46" style="fill: rgb(29, 27, 32);" class="fills" id="fills-0c675889-8bed-802c-8005-669596997178"/></g><g id="shape-0c675889-8bed-802c-8005-669596997179"><rect rx="6" ry="6" x="218.396" y="697" width="32.369" height="46" style="fill: rgb(29, 27, 32);" class="fills" id="fills-0c675889-8bed-802c-8005-669596997179"/></g><g id="shape-0c675889-8bed-802c-8005-66959699717a"><rect rx="6" ry="6" x="256.477" y="697" width="32.369" height="46" style="fill: rgb(29, 27, 32);" class="fills" id="fills-0c675889-8bed-802c-8005-66959699717a"/></g><g id="shape-0c675889-8bed-802c-8005-66959699717b"><rect rx="6" ry="6" x="294.558" y="697" width="32.369" height="46" style="fill: rgb(29, 27, 32);" class="fills" id="fills-0c675889-8bed-802c-8005-66959699717b"/></g><g id="shape-0c675889-8bed-802c-8005-66959699717c"><rect rx="6" ry="6" x="332.639" y="697" width="52.361" height="46" style="fill: rgb(54, 52, 59);" class="fills" id="fills-0c675889-8bed-802c-8005-66959699717c"/></g><g id="shape-0c675889-8bed-802c-8005-66959699717d"><rect rx="23" ry="23" x="8" y="755" width="52.361" height="46" style="fill: rgb(74, 68, 88);" class="fills" id="fills-0c675889-8bed-802c-8005-66959699717d"/></g><g id="shape-0c675889-8bed-802c-8005-66959699717e"><rect rx="6" ry="6" x="66.073" y="755" width="32.369" height="46" style="fill: rgb(54, 52, 59);" class="fills" id="fills-0c675889-8bed-802c-8005-66959699717e"/></g><g id="shape-0c675889-8bed-802c-8005-66959699717f"><rect rx="6" ry="6" x="104.154" y="755" width="32.369" height="46" style="fill: rgb(29, 27, 32);" class="fills" id="fills-0c675889-8bed-802c-8005-66959699717f"/></g><g id="shape-0c675889-8bed-802c-8005-669596997180"><path d="M142.235 761c0-3.314 2.557-6 5.712-6h135.187c3.155 0 5.712 2.686 5.712 6v34c0 3.314-2.557 6-5.712 6H147.947c-3.155 0-5.712-2.686-5.712-6v-34Z" fill-rule="evenodd" clip-rule="evenodd" style="fill: rgb(29, 27, 32);" class="fills" id="fills-0c675889-8bed-802c-8005-669596997180"/></g><g id="shape-0c675889-8bed-802c-8005-669596997181"><rect rx="6" ry="6" x="294.558" y="755" width="32.369" height="46" style="fill: rgb(54, 52, 59);" class="fills" id="fills-0c675889-8bed-802c-8005-669596997181"/></g><g id="shape-0c675889-8bed-802c-8005-669596997182"><rect rx="23" ry="23" x="332.639" y="755" width="52.361" height="46" style="fill: rgb(103, 80, 164);" class="fills" id="fills-0c675889-8bed-802c-8005-669596997182"/></g></g></g></g></g><g id="shape-0c675889-8bed-802c-8005-669596997150"><defs><clipPath id="frame-clip-0c675889-8bed-802c-8005-669596997150-render-224" class="frame-clip frame-clip-def"><rect rx="0" ry="0" width="393" height="57"/></clipPath></defs><g clip-path="url(#frame-clip-0c675889-8bed-802c-8005-669596997150-render-224)"><g class="fills" id="fills-0c675889-8bed-802c-8005-669596997150"><rect width="393" height="57" class="frame-background" style="fill: rgb(20, 18, 24); fill-opacity: 1;" ry="0" rx="0"/></g><g class="frame-children"><g id="shape-0c675889-8bed-802c-8005-669596997183"><defs><clipPath id="frame-clip-0c675889-8bed-802c-8005-669596997183-render-225" class="frame-clip frame-clip-def"><rect rx="0" ry="0" x="24" y="29" width="46" height="18"/></clipPath></defs><g clip-path="url(#frame-clip-0c675889-8bed-802c-8005-669596997183-render-225)"><g class="fills" id="fills-0c675889-8bed-802c-8005-669596997183"><rect rx="0" ry="0" x="24" y="29" width="46" height="18" class="frame-background"/></g><g class="frame-children"><g class="text-container" id="shape-0c675889-8bed-802c-8005-669596997186"><defs><pattern patternUnits="userSpaceOnUse" x="24" y="29" width="27.589" height="16.571" id="fill-0-render-226-0"><rect width="27.589" height="16.571" style="fill: rgb(255, 255, 255); fill-opacity: 1;"/></pattern></defs><text x="24" y="45.571" dominant-baseline="ideographic" textLength="27.589" lengthAdjust="spacingAndGlyphs" style="text-transform: none; font-family: Roboto; letter-spacing: normal; font-style: normal; font-weight: 500; white-space: pre; font-size: 14px; text-decoration: none solid rgb(255, 255, 255); direction: ltr; fill: rgb(255, 255, 255); fill-opacity: 1;" class="fills" id="fills-0c675889-8bed-802c-8005-669596997186">9:30</text></g></g></g></g><g id="shape-0c675889-8bed-802c-8005-669596997184"><path d="M196.5 23c-6.627 0-12 5.373-12 12s5.373 12 12 12 12-5.373 12-12-5.373-12-12-12Z" fill-rule="evenodd" clip-rule="evenodd" style="fill: rgb(57, 53, 61); fill-opacity: 1;" class="fills" id="fills-0c675889-8bed-802c-8005-669596997184"/></g><g id="shape-0c675889-8bed-802c-8005-669596997185"><defs><clipPath id="frame-clip-0c675889-8bed-802c-8005-669596997185-render-228" class="frame-clip frame-clip-def"><rect rx="0" ry="0" x="323" y="29" width="46" height="18"/></clipPath></defs><g clip-path="url(#frame-clip-0c675889-8bed-802c-8005-669596997185-render-228)"><g class="fills" id="fills-0c675889-8bed-802c-8005-669596997185"><rect rx="0" ry="0" x="323" y="29" width="46" height="18" class="frame-background"/></g><g class="frame-children"><g id="shape-0c675889-8bed-802c-8005-669596997187" style="opacity: 1;"><path d="M331.5 31.417c-3.4 0-6.375 1.487-8.5 3.825l8.5 10.341 8.5-10.341c-2.125-2.338-5.1-3.825-8.5-3.825Z" style="fill: rgb(67, 66, 70); fill-opacity: 1;" class="fills" id="fills-0c675889-8bed-802c-8005-669596997187"/></g><g id="shape-0c675889-8bed-802c-8005-669596997188"><path d="M354.166 31.417 340 45.583h14.166V31.417Z" style="fill: rgb(255, 255, 255); fill-opacity: 1;" class="fills" id="fills-0c675889-8bed-802c-8005-669596997188"/></g><g id="shape-0c675889-8bed-802c-8005-669596997189"><g id="shape-0c675889-8bed-802c-8005-66959699718a"><path d="M361 39v5.95c0 .58.448 1.05 1 1.05h6c.552 0 1-.47 1-1.05V39h-8Z" style="fill: rgb(255, 255, 255); fill-opacity: 1;" class="fills" id="fills-0c675889-8bed-802c-8005-66959699718a"/></g><g id="shape-0c675889-8bed-802c-8005-66959699718b"><path d="M366.5 31h-3v1.5H362c-.552 0-1 .504-1 1.125v11.25c0 .621.448 1.125 1 1.125h6c.552 0 1-.504 1-1.125v-11.25c0-.621-.448-1.125-1-1.125h-1.5V31Z" style="fill: rgb(177, 177, 177); fill-opacity: 0.3;" class="fills" id="fills-0c675889-8bed-802c-8005-66959699718b"/></g></g></g></g></g></g></g></g></g></g></g></svg>